<svg width="16" height="16" viewBox="0 0 16 16" fill="none" xmlns="http://www.w3.org/2000/svg">
<path d="M13.8867 5.34018L9.52002 1.84684C8.66668 1.16684 7.33335 1.16018 6.48668 1.84017L2.12002 5.34018C1.49335 5.84018 1.11335 6.84017 1.24668 7.62684L2.08668 12.6535C2.28002 13.7802 3.32668 14.6668 4.46668 14.6668H11.5333C12.66 14.6668 13.7267 13.7602 13.92 12.6468L14.76 7.62017C14.88 6.84017 14.5 5.84018 13.8867 5.34018ZM8.50002 12.0002C8.50002 12.2735 8.27335 12.5002 8.00002 12.5002C7.72668 12.5002 7.50002 12.2735 7.50002 12.0002V10.0002C7.50002 9.72684 7.72668 9.50017 8.00002 9.50017C8.27335 9.50017 8.50002 9.72684 8.50002 10.0002V12.0002Z" fill="white"/>
</svg>
